<svg width="95" height="94" viewBox="0 0 95 94" fill="none" xmlns="http://www.w3.org/2000/svg">
<path d="M68.844 0H26.1558L12.9636 40.7207L47.5004 65.8835L82.0372 40.7207L68.844 0Z" fill="white"/>
<path d="M36.8595 26.2278H39.1877V29.4508L41.6264 21.9182H30.9497L36.8595 26.2278Z" fill="#D5B376"/>
<path d="M68.844 0H26.1558L12.9636 40.7207L47.5004 65.8846L82.0372 40.7207L68.844 0ZM47.5004 55.9888L34.2033 46.3004L35.0551 43.668H59.9446L60.7965 46.3004L47.4993 55.9888H47.5004ZM49.8827 11.1604H60.5735L68.6524 36.0996L60.974 41.6934H48.4562V39.0338L56.9139 32.8549H38.0847L46.5425 39.0338V41.6934H34.0247L26.3463 36.0996L34.4252 11.1604H45.1159L47.4766 12.8832L49.8827 11.1604Z" fill="#D5B376"/>
<path d="M55.8123 29.4508V26.2278H58.1405L64.0503 21.9182H53.3737L55.8123 29.4508Z" fill="#D5B376"/>
<path d="M14.8557 80.7846C14.8557 74.6752 19.3801 70.0193 25.5897 70.0193C30.6759 70.0193 34.5497 73.2227 35.6733 77.731H30.2905C29.4625 75.9214 27.7772 74.8239 25.5887 74.8239C22.1586 74.8239 19.9408 77.3152 19.9408 80.7846C19.9408 84.254 22.1586 86.7453 25.5887 86.7453C27.7772 86.7453 29.4625 85.6478 30.2905 83.8393H35.6733C34.5497 88.3475 30.6759 91.5499 25.5897 91.5499C19.3801 91.5499 14.8557 86.894 14.8557 80.7846Z" fill="#212348"/>
<path d="M37.3792 80.7846C37.3792 74.6752 41.9035 70.0193 48.1132 70.0193C53.1993 70.0193 57.0732 73.2227 58.1967 77.731H52.8151C51.987 75.9214 50.3018 74.8239 48.1132 74.8239C44.6831 74.8239 42.4653 77.3152 42.4653 80.7846C42.4653 84.254 44.6831 86.7453 48.1132 86.7453C50.3018 86.7453 51.987 85.6478 52.8151 83.8393H58.1967C57.0732 88.3475 53.1993 91.5499 48.1132 91.5499C41.9035 91.5499 37.3792 86.894 37.3792 80.7846Z" fill="#212348"/>
<path d="M80.1442 75.2094H72.2341V91.1646H67.2064V75.2094H59.3256V70.4048H80.1442V75.2094Z" fill="#212348"/>
<path d="M11.3564 67.8276H4.19317L0 80.7792L4.19641 93.7373V93.7416H11.3596L7.15999 80.7792L11.3564 67.8276Z" fill="#D5B376"/>
<path d="M90.8069 67.8276H83.6436L87.84 80.7792L83.6404 93.7416H90.8036V93.7373L95 80.7792L90.8069 67.8276Z" fill="#D5B376"/>
</svg>
